<svg xmlns="http://www.w3.org/2000/svg" xmlns:xlink="http://www.w3.org/1999/xlink" version="1.1" x="0px" y="0px" viewBox="0 0 98 122.5" style="enable-background:new 0 0 98 98;" xml:space="preserve"><title>14</title><g><path d="M49,10.8c-19.8,0-35.9,17.1-35.9,38.2S29.2,87.2,49,87.2S84.9,70.1,84.9,49S68.8,10.8,49,10.8z M49,83.2   c-8.5-0.1-16.6-3.6-22.4-9.9c0.2-0.7,0.5-1.3,0.9-1.9c2.3-3.7,6-6.3,10.3-7.1c6.6,5.1,15.8,5.1,22.4,0c4.3,0.8,8,3.4,10.3,7.1   c0.4,0.6,0.7,1.2,0.9,1.9C65.6,79.6,57.5,83.1,49,83.2z M73.9,69.3c-3-5-8.2-8.3-14-9.1H59l-0.6,0.6c-5.4,4.5-13.4,4.5-18.8,0   L39,60.2h-0.9c-5.8,0.8-11,4.1-14,9.1l-0.3,0.6c-4.4-6.1-6.7-13.4-6.7-20.9c0-18.9,14.3-34.2,31.9-34.2S80.9,30.1,80.9,49   c0,7.5-2.3,14.8-6.7,20.9L73.9,69.3z"/><path d="M49,28.2c-8,0-14.4,6.4-14.4,14.4C34.6,50.6,41,57,49,57s14.4-6.4,14.4-14.4C63.3,34.7,56.9,28.3,49,28.2z M49,53   c-5.7,0-10.4-4.7-10.4-10.4c0-5.7,4.7-10.4,10.4-10.4s10.4,4.7,10.4,10.4C59.3,48.3,54.7,52.9,49,53z"/></g><text x="0" y="113" fill="#000000" font-size="5px" font-weight="bold" font-family="'Helvetica Neue', Helvetica, Arial-Unicode, Arial, Sans-serif">Created by Harper</text><text x="0" y="118" fill="#000000" font-size="5px" font-weight="bold" font-family="'Helvetica Neue', Helvetica, Arial-Unicode, Arial, Sans-serif">from the Noun Project</text></svg>