<svg xmlns="http://www.w3.org/2000/svg" xmlns:xlink="http://www.w3.org/1999/xlink" xml:space="preserve" version="1.1" style="shape-rendering:geometricPrecision;text-rendering:geometricPrecision;image-rendering:optimizeQuality;" viewBox="0 0 386 462.5" x="0px" y="0px" fill-rule="evenodd" clip-rule="evenodd"><defs><style type="text/css">
   
    .fil0 {fill:black;fill-rule:nonzero}
   
  </style></defs><g><path class="fil0" d="M193 0c59,0 107,48 107,107 0,60 -48,108 -107,108 -60,0 -108,-48 -108,-108 0,-59 48,-107 108,-107zm0 25c-46,0 -82,37 -82,82 0,46 36,83 82,83 45,0 82,-37 82,-83 0,-45 -37,-82 -82,-82z"/><path class="fil0" d="M143 221l100 0c78,0 143,64 143,142 0,9 -26,9 -26,0 0,-64 -53,-117 -117,-117l-100 0c-65,0 -118,53 -118,117 0,9 -25,9 -25,0 0,-78 64,-142 143,-142z"/></g><text x="0" y="385" fill="#000000" font-size="5px" font-weight="bold" font-family="'Helvetica Neue', Helvetica, Arial-Unicode, Arial, Sans-serif">Created by Iga</text><text x="0" y="390" fill="#000000" font-size="5px" font-weight="bold" font-family="'Helvetica Neue', Helvetica, Arial-Unicode, Arial, Sans-serif">from the Noun Project</text></svg>