<svg xmlns="http://www.w3.org/2000/svg" xmlns:xlink="http://www.w3.org/1999/xlink" version="1.1" x="0px" y="0px" viewBox="0 0 100 125" enable-background="new 0 0 100 100" xml:space="preserve"><g><path d="M89.198,48.458c-0.038-0.114-0.068-0.233-0.115-0.343c-0.194-0.49-0.485-0.951-0.883-1.347L77.887,36.454   c-1.547-1.546-4.054-1.546-5.601,0c-1.548,1.547-1.548,4.157,0,5.704L76.028,46H40.976c-2.134,0-3.864,1.866-3.864,4   c0,2.135,1.729,4,3.864,4h35.567l-4.063,3.826c-1.547,1.546-1.548,3.936,0,5.481c1.545,1.546,4.054,1.486,5.6-0.06l10.315-10.344   C89.589,51.709,89.85,49.915,89.198,48.458z"/><path d="M58.5,59.995c-2.133,0-3.5,1.731-3.5,3.864v10.245C55,76.521,53.373,79,50.956,79H23.011C20.595,79,18,76.521,18,74.104   V25.538C18,23.122,20.595,22,23.011,22h27.945C53.373,22,55,23.122,55,25.538v10.245c0,2.134,1.367,3.865,3.5,3.865   c2.135,0,3.5-1.731,3.5-3.865V25.538C62,18.865,57.631,14,50.956,14H23.011C16.337,14,10,18.865,10,25.538v48.567   C10,80.777,16.337,87,23.011,87h27.945C57.631,87,62,80.777,62,74.104V63.859C62,61.727,60.635,59.995,58.5,59.995z"/></g><text x="0" y="115" fill="#000000" font-size="5px" font-weight="bold" font-family="'Helvetica Neue', Helvetica, Arial-Unicode, Arial, Sans-serif">Created by Oleg Frolov</text><text x="0" y="120" fill="#000000" font-size="5px" font-weight="bold" font-family="'Helvetica Neue', Helvetica, Arial-Unicode, Arial, Sans-serif">from the Noun Project</text></svg>