<svg xmlns="http://www.w3.org/2000/svg" viewBox="0 0 64 80" x="0px" y="0px">
    <g data-name="About">
        <path d="M34.949,28.768h-5.9a1,1,0,0,0-1,1v15.2a1,1,0,0,0,1,1h5.9a1,1,0,0,0,1-1v-15.2A1,1,0,0,0,34.949,28.768Zm-1,15.2h-3.9v-13.2h3.9ZM32,18.029a3.949,3.949,0,1,0,3.949,3.949A3.953,3.953,0,0,0,32,18.029Zm0,5.9a1.949,1.949,0,1,1,1.949-1.949A1.951,1.951,0,0,1,32,23.927ZM46,9H18a9.011,9.011,0,0,0-9,9V46a9.011,9.011,0,0,0,9,9H46a9.011,9.011,0,0,0,9-9V18A9.011,9.011,0,0,0,46,9Zm7,37a7.008,7.008,0,0,1-7,7H18a7.008,7.008,0,0,1-7-7V18a7.008,7.008,0,0,1,7-7H46a7.008,7.008,0,0,1,7,7Z" />
    </g>
</svg>